<svg width="131" height="30" viewBox="0 0 131 30" fill="none" xmlns="http://www.w3.org/2000/svg">
<path d="M30.08 0.32V18.624H18.72V23.104H30.08V29.504H0V23.104H11.36V18.624H7.04C5.97333 18.624 5.00267 18.4533 4.128 18.112C3.27467 17.7707 2.53867 17.3013 1.92 16.704C1.32267 16.0853 0.853333 15.3493 0.512 14.496C0.170667 13.6213 0 12.6507 0 11.584V0.32H30.08ZM7.36 10.624C7.36 11.2 7.53067 11.6693 7.872 12.032C8.23467 12.3733 8.704 12.544 9.28 12.544H22.72V6.4H7.36V10.624ZM33.9213 8.8C33.9213 7.47733 34.1239 6.28267 34.5293 5.216C34.9346 4.128 35.5213 3.2 36.2893 2.432C37.0573 1.664 37.9959 1.06667 39.1053 0.64C40.2146 0.213333 41.4839 0 42.9133 0C44.3426 0 45.6119 0.213333 46.7213 0.64C47.8306 1.06667 48.7693 1.664 49.5373 2.432C50.3053 3.2 50.8919 4.128 51.2973 5.216C51.7026 6.28267 51.9053 7.47733 51.9053 8.8V21.024C51.9053 22.3467 51.7026 23.552 51.2973 24.64C50.8919 25.7067 50.3053 26.624 49.5373 27.392C48.7693 28.16 47.8306 28.7573 46.7213 29.184C45.6119 29.6107 44.3426 29.824 42.9133 29.824C41.4839 29.824 40.2146 29.6107 39.1053 29.184C37.9959 28.7573 37.0573 28.16 36.2893 27.392C35.5213 26.624 34.9346 25.7067 34.5293 24.64C34.1239 23.552 33.9213 22.3467 33.9213 21.024V8.8ZM54.0813 0.32H61.4413V10.912H64.3213V17.312H61.4413V29.504H54.0813V0.32ZM42.9133 23.424C43.4039 23.424 43.7986 23.2747 44.0973 22.976C44.3959 22.656 44.5453 22.2187 44.5453 21.664V8.16C44.5453 7.60533 44.3959 7.17867 44.0973 6.88C43.7986 6.56 43.4039 6.4 42.9133 6.4C42.4226 6.4 42.0279 6.56 41.7293 6.88C41.4306 7.17867 41.2813 7.60533 41.2813 8.16V21.664C41.2813 22.2187 41.4306 22.656 41.7293 22.976C42.0279 23.2747 42.4226 23.424 42.9133 23.424ZM96.6425 0.32V18.624H85.2825V23.104H96.6425V29.504H66.5625V23.104H77.9225V18.624H73.6025C72.5358 18.624 71.5652 18.4533 70.6905 18.112C69.8372 17.7707 69.1012 17.3013 68.4825 16.704C67.8852 16.0853 67.4158 15.3493 67.0745 14.496C66.7332 13.6213 66.5625 12.6507 66.5625 11.584V0.32H96.6425ZM73.9225 10.624C73.9225 11.2 74.0932 11.6693 74.4345 12.032C74.7972 12.3733 75.2665 12.544 75.8425 12.544H89.2825V6.4H73.9225V10.624ZM100.484 8.8C100.484 7.47733 100.687 6.28267 101.091 5.216C101.497 4.128 102.084 3.2 102.852 2.432C103.619 1.664 104.559 1.06667 105.668 0.64C106.778 0.213333 108.047 0 109.476 0C110.906 0 112.174 0.213333 113.284 0.64C114.394 1.06667 115.332 1.664 116.1 2.432C116.868 3.2 117.455 4.128 117.86 5.216C118.266 6.28267 118.467 7.47733 118.467 8.8V21.024C118.467 22.3467 118.266 23.552 117.86 24.64C117.455 25.7067 116.868 26.624 116.1 27.392C115.332 28.16 114.394 28.7573 113.284 29.184C112.174 29.6107 110.906 29.824 109.476 29.824C108.047 29.824 106.778 29.6107 105.668 29.184C104.559 28.7573 103.619 28.16 102.852 27.392C102.084 26.624 101.497 25.7067 101.091 24.64C100.687 23.552 100.484 22.3467 100.484 21.024V8.8ZM120.644 0.32H128.003V10.912H130.883V17.312H128.003V29.504H120.644V0.32ZM109.476 23.424C109.966 23.424 110.362 23.2747 110.66 22.976C110.959 22.656 111.107 22.2187 111.107 21.664V8.16C111.107 7.60533 110.959 7.17867 110.66 6.88C110.362 6.56 109.966 6.4 109.476 6.4C108.986 6.4 108.591 6.56 108.292 6.88C107.994 7.17867 107.843 7.60533 107.843 8.16V21.664C107.843 22.2187 107.994 22.656 108.292 22.976C108.591 23.2747 108.986 23.424 109.476 23.424Z" fill="#1A4568"/>
</svg>
